<svg width="16" height="16" viewBox="0 0 16 16" fill="none" xmlns="http://www.w3.org/2000/svg">
<circle cx="8" cy="8" r="6.5" fill="#402929" stroke="#DB5C5C"/>
<path d="M7 6.25C7 6.94036 6.44036 7.5 5.75 7.5C5.05964 7.5 4.5 6.94036 4.5 6.25C4.5 5.55964 5.05964 5 5.75 5C6.44036 5 7 5.55964 7 6.25Z" stroke="#DB5C5C"/>
<path d="M11.5 9.75C11.5 10.4404 10.9404 11 10.25 11C9.55964 11 9 10.4404 9 9.75C9 9.05964 9.55964 8.5 10.25 8.5C10.9404 8.5 11.5 9.05964 11.5 9.75Z" stroke="#DB5C5C"/>
<path d="M10.5 5L5.5 11" stroke="#DB5C5C" stroke-linecap="round"/>
</svg>
