<svg width="16" height="16" viewBox="0 0 16 16" fill="none" xmlns="http://www.w3.org/2000/svg">
<circle cx="8" cy="8" r="6.5" fill="#FFF7F7" stroke="#DB3B4B"/>
<path d="M7.4826 9.08146C7.4826 8.87172 7.51854 8.68656 7.5904 8.52598C7.66554 8.36213 7.75537 8.22121 7.8599 8.10323C7.9677 7.98525 8.1098 7.84597 8.2862 7.68539C8.4528 7.53137 8.58347 7.40192 8.6782 7.29705C8.7762 7.19218 8.85787 7.06765 8.9232 6.92345C8.9918 6.77926 9.0261 6.61704 9.0261 6.4368C9.0261 6.24345 8.98364 6.07139 8.8987 5.92065C8.81704 5.7699 8.70107 5.65356 8.5508 5.57163C8.4038 5.48642 8.23394 5.44382 8.0412 5.44382C7.8256 5.44382 7.63614 5.49134 7.4728 5.58638C7.30947 5.67814 7.1837 5.80922 7.0955 5.97963C7.0073 6.14677 6.9632 6.34012 6.9632 6.55969H5.8999C5.8999 6.14677 5.9881 5.78464 6.1645 5.47331C6.34417 5.16198 6.5957 4.92275 6.9191 4.75562C7.24577 4.58521 7.6247 4.5 8.0559 4.5C8.4675 4.5 8.82847 4.57865 9.1388 4.73595C9.44914 4.88998 9.6876 5.10955 9.8542 5.39466C10.0241 5.6765 10.1074 6.00257 10.1041 6.37289C10.1041 6.66128 10.0584 6.91362 9.9669 7.12992C9.87544 7.34293 9.766 7.52154 9.6386 7.66573C9.5112 7.80665 9.3446 7.96395 9.1388 8.13764C8.9918 8.26873 8.8742 8.38015 8.786 8.47191C8.70107 8.56039 8.63084 8.66035 8.5753 8.77177C8.51977 8.87992 8.492 8.99953 8.492 9.13062V9.31742H7.4826V9.08146ZM7.3797 10.2416H8.6341V11.5H7.3797V10.2416Z" fill="#DB3B4B"/>
</svg>
