<svg width="23" height="16" viewBox="0 0 23 16" fill="none" xmlns="http://www.w3.org/2000/svg">
<rect x="2.5" y="2.5" width="18" height="11" rx="1.5" fill="#FFF7F7" stroke="#DB3B4B"/>
<path d="M8.13241 11.5C9.62136 11.5 10.8976 10.6008 11.2118 9.32459H10.1966C9.88241 10.0546 9.1041 10.5767 8.13241 10.5767C6.79332 10.5767 5.82647 9.50345 5.82647 8C5.82647 6.49655 6.79332 5.42334 8.13241 5.42334C9.1041 5.42334 9.88241 5.94544 10.1966 6.67541H11.2118C10.8976 5.39917 9.62136 4.5 8.13241 4.5C6.21321 4.5 4.78711 5.99378 4.78711 8C4.78711 10.0062 6.21321 11.5 8.13241 11.5Z" fill="#DB3B4B"/>
<path d="M15.1405 8.37966H16.2131L18.0361 11.357H16.9153L15.1405 8.37966ZM13 4.62305H15.7802C16.2259 4.62305 16.6171 4.70642 16.9538 4.87317C17.2905 5.03671 17.5503 5.26919 17.733 5.57062C17.9158 5.87204 18.0072 6.22157 18.0072 6.6192C18.0072 7.02003 17.9142 7.37276 17.7282 7.6774C17.5422 7.98203 17.2777 8.21772 16.9346 8.38447C16.5947 8.55121 16.197 8.63459 15.7417 8.63459H13.9716V11.357H13V4.62305ZM15.7513 7.76879C15.9982 7.76879 16.2147 7.72229 16.4007 7.6293C16.5867 7.5363 16.731 7.40323 16.8336 7.23007C16.9362 7.05691 16.9875 6.85489 16.9875 6.62401C16.9875 6.39633 16.9362 6.19592 16.8336 6.02276C16.731 5.8496 16.5867 5.71812 16.4007 5.62834C16.2147 5.53534 15.9982 5.48885 15.7513 5.48885H13.9716V7.76879H15.7513Z" fill="#DB3B4B"/>
</svg>
